<?xml version="1.0" encoding="UTF-8" standalone="no"?>
<!DOCTYPE svg PUBLIC "-//W3C//DTD SVG 1.1//EN"
 "http://www.w3.org/Graphics/SVG/1.1/DTD/svg11.dtd">
<!-- Generated by graphviz version 2.43.0 (0)
 -->
<!-- Title: example_partial_order Pages: 1 -->
<svg width="244pt" height="188pt"
 viewBox="0.00 0.00 244.00 188.00" xmlns="http://www.w3.org/2000/svg" xmlns:xlink="http://www.w3.org/1999/xlink">
<g id="graph0" class="graph" transform="scale(1 1) rotate(0) translate(4 184)">
<title>example_partial_order</title>
<polygon fill="white" stroke="transparent" points="-4,4 -4,-184 240,-184 240,4 -4,4"/>
<!-- a -->
<g id="node1" class="node">
<title>a</title>
<ellipse fill="none" stroke="black" cx="27" cy="-162" rx="27" ry="18"/>
<text text-anchor="middle" x="27" y="-158.3" font-family="Times,serif" font-size="14.00">a</text>
</g>
<!-- a&#45;&gt;a -->
<g id="edge1" class="edge">
<title>a&#45;&gt;a</title>
<path fill="none" stroke="black" d="M46.9,-174.43C59.69,-177.68 72,-173.53 72,-162 72,-153.62 65.5,-149.14 57.04,-148.56"/>
<polygon fill="black" stroke="black" points="56.5,-145.1 46.9,-149.57 57.19,-152.07 56.5,-145.1"/>
</g>
<!-- c -->
<g id="node2" class="node">
<title>c</title>
<ellipse fill="none" stroke="black" cx="63" cy="-90" rx="27" ry="18"/>
<text text-anchor="middle" x="63" y="-86.3" font-family="Times,serif" font-size="14.00">c</text>
</g>
<!-- a&#45;&gt;c -->
<g id="edge2" class="edge">
<title>a&#45;&gt;c</title>
<path fill="none" stroke="black" d="M35.35,-144.76C39.71,-136.28 45.15,-125.71 50.04,-116.2"/>
<polygon fill="black" stroke="black" points="53.23,-117.64 54.7,-107.15 47.01,-114.44 53.23,-117.64"/>
</g>
<!-- e -->
<g id="node3" class="node">
<title>e</title>
<ellipse fill="none" stroke="black" cx="136" cy="-18" rx="27" ry="18"/>
<text text-anchor="middle" x="136" y="-14.3" font-family="Times,serif" font-size="14.00">e</text>
</g>
<!-- a&#45;&gt;e -->
<g id="edge3" class="edge">
<title>a&#45;&gt;e</title>
<path fill="none" stroke="black" d="M22.04,-144.14C17.48,-125.08 13.31,-93.87 27,-72 42.89,-46.6 74.82,-33.06 100.04,-26.04"/>
<polygon fill="black" stroke="black" points="101.19,-29.36 110.02,-23.5 99.46,-22.58 101.19,-29.36"/>
</g>
<!-- c&#45;&gt;c -->
<g id="edge8" class="edge">
<title>c&#45;&gt;c</title>
<path fill="none" stroke="black" d="M82.9,-102.43C95.69,-105.68 108,-101.53 108,-90 108,-81.62 101.5,-77.14 93.04,-76.56"/>
<polygon fill="black" stroke="black" points="92.5,-73.1 82.9,-77.57 93.19,-80.07 92.5,-73.1"/>
</g>
<!-- e&#45;&gt;e -->
<g id="edge11" class="edge">
<title>e&#45;&gt;e</title>
<path fill="none" stroke="black" d="M155.9,-30.43C168.69,-33.68 181,-29.53 181,-18 181,-9.62 174.5,-5.14 166.04,-4.56"/>
<polygon fill="black" stroke="black" points="165.5,-1.1 155.9,-5.57 166.19,-8.07 165.5,-1.1"/>
</g>
<!-- b -->
<g id="node4" class="node">
<title>b</title>
<ellipse fill="none" stroke="black" cx="136" cy="-162" rx="27" ry="18"/>
<text text-anchor="middle" x="136" y="-158.3" font-family="Times,serif" font-size="14.00">b</text>
</g>
<!-- b&#45;&gt;c -->
<g id="edge5" class="edge">
<title>b&#45;&gt;c</title>
<path fill="none" stroke="black" d="M121.23,-146.83C110.84,-136.87 96.76,-123.37 85.04,-112.14"/>
<polygon fill="black" stroke="black" points="87.39,-109.54 77.75,-105.14 82.55,-114.59 87.39,-109.54"/>
</g>
<!-- b&#45;&gt;e -->
<g id="edge7" class="edge">
<title>b&#45;&gt;e</title>
<path fill="none" stroke="black" d="M136,-143.87C136,-119.67 136,-75.21 136,-46.39"/>
<polygon fill="black" stroke="black" points="139.5,-46.19 136,-36.19 132.5,-46.19 139.5,-46.19"/>
</g>
<!-- b&#45;&gt;b -->
<g id="edge4" class="edge">
<title>b&#45;&gt;b</title>
<path fill="none" stroke="black" d="M155.9,-174.43C168.69,-177.68 181,-173.53 181,-162 181,-153.62 174.5,-149.14 166.04,-148.56"/>
<polygon fill="black" stroke="black" points="165.5,-145.1 155.9,-149.57 166.19,-152.07 165.5,-145.1"/>
</g>
<!-- d -->
<g id="node5" class="node">
<title>d</title>
<ellipse fill="none" stroke="black" cx="191" cy="-90" rx="27" ry="18"/>
<text text-anchor="middle" x="191" y="-86.3" font-family="Times,serif" font-size="14.00">d</text>
</g>
<!-- b&#45;&gt;d -->
<g id="edge6" class="edge">
<title>b&#45;&gt;d</title>
<path fill="none" stroke="black" d="M147.93,-145.81C155.21,-136.55 164.66,-124.52 172.85,-114.09"/>
<polygon fill="black" stroke="black" points="175.66,-116.18 179.09,-106.16 170.16,-111.86 175.66,-116.18"/>
</g>
<!-- d&#45;&gt;e -->
<g id="edge10" class="edge">
<title>d&#45;&gt;e</title>
<path fill="none" stroke="black" d="M179.07,-73.81C171.79,-64.55 162.34,-52.52 154.15,-42.09"/>
<polygon fill="black" stroke="black" points="156.84,-39.86 147.91,-34.16 151.34,-44.18 156.84,-39.86"/>
</g>
<!-- d&#45;&gt;d -->
<g id="edge9" class="edge">
<title>d&#45;&gt;d</title>
<path fill="none" stroke="black" d="M210.9,-102.43C223.69,-105.68 236,-101.53 236,-90 236,-81.62 229.5,-77.14 221.04,-76.56"/>
<polygon fill="black" stroke="black" points="220.5,-73.1 210.9,-77.57 221.19,-80.07 220.5,-73.1"/>
</g>
</g>
</svg>
