<?xml version="1.0" encoding="UTF-8" standalone="no"?>
<!DOCTYPE svg PUBLIC "-//W3C//DTD SVG 1.1//EN"
 "http://www.w3.org/Graphics/SVG/1.1/DTD/svg11.dtd">
<!-- Generated by graphviz version 2.43.0 (0)
 -->
<!-- Title: %3 Pages: 1 -->
<svg width="164pt" height="260pt"
 viewBox="0.00 0.00 164.00 259.91" xmlns="http://www.w3.org/2000/svg" xmlns:xlink="http://www.w3.org/1999/xlink">
<g id="graph0" class="graph" transform="scale(1 1) rotate(0) translate(4 255.91)">
<title>%3</title>
<polygon fill="white" stroke="transparent" points="-4,4 -4,-255.91 160,-255.91 160,4 -4,4"/>
<g id="clust1" class="cluster">
<title>cluster3 x 3</title>
<path fill="none" stroke="black" d="M24,-129.95C24,-129.95 132,-129.95 132,-129.95 138,-129.95 144,-135.95 144,-141.95 144,-141.95 144,-231.91 144,-231.91 144,-237.91 138,-243.91 132,-243.91 132,-243.91 24,-243.91 24,-243.91 18,-243.91 12,-237.91 12,-231.91 12,-231.91 12,-141.95 12,-141.95 12,-135.95 18,-129.95 24,-129.95"/>
<text text-anchor="middle" x="122" y="-137.75" font-family="Times,serif" font-size="14.00">3 x 3</text>
</g>
<g id="clust2" class="cluster">
<title>cluster74</title>
<path fill="none" stroke="black" d="M20,-8C20,-8 136,-8 136,-8 142,-8 148,-14 148,-20 148,-20 148,-109.95 148,-109.95 148,-115.95 142,-121.95 136,-121.95 136,-121.95 20,-121.95 20,-121.95 14,-121.95 8,-115.95 8,-109.95 8,-109.95 8,-20 8,-20 8,-14 14,-8 20,-8"/>
<text text-anchor="middle" x="133" y="-15.8" font-family="Times,serif" font-size="14.00">74</text>
</g>
<!-- λ -->
<g id="node1" class="node">
<title>λ</title>
<ellipse fill="none" stroke="black" cx="78" cy="-198.43" rx="57.97" ry="37.45"/>
<text text-anchor="middle" x="78" y="-209.73" font-family="Times,serif" font-size="14.00">λ</text>
<text text-anchor="middle" x="78" y="-194.73" font-family="Times,serif" font-size="14.00">~</text>
<text text-anchor="middle" x="78" y="-179.73" font-family="Times,serif" font-size="14.00">Exponential</text>
</g>
<!-- flower_visits -->
<g id="node2" class="node">
<title>flower_visits</title>
<ellipse fill="lightgrey" stroke="black" cx="78" cy="-76.48" rx="61.54" ry="37.45"/>
<text text-anchor="middle" x="78" y="-87.78" font-family="Times,serif" font-size="14.00">flower_visits</text>
<text text-anchor="middle" x="78" y="-72.78" font-family="Times,serif" font-size="14.00">~</text>
<text text-anchor="middle" x="78" y="-57.78" font-family="Times,serif" font-size="14.00">Poisson</text>
</g>
<!-- λ&#45;&gt;flower_visits -->
<g id="edge1" class="edge">
<title>λ&#45;&gt;flower_visits</title>
<path fill="none" stroke="black" d="M78,-160.79C78,-149.38 78,-136.65 78,-124.63"/>
<polygon fill="black" stroke="black" points="81.5,-124.31 78,-114.31 74.5,-124.31 81.5,-124.31"/>
</g>
</g>
</svg>
